<svg width="324" height="216" xmlns="http://www.w3.org/2000/svg">
  <path fill="#fff" d="M0 0h324v216H0z"/>
  <path d="M125.023 70.965c-.014.054-1.396 5.433-6.574 12.12-4.787 6.182-13.881 14.763-30.021 20.548l-.117.045v1.562l.224-.07c19.205-6.187 27.37-11.702 30.225-14.04-.823 1.217-2.109 2.83-4.059 4.704-7.348 7.05-18.346 12.292-26.277 15.447l-.113.047v1.434l.222-.067c12.388-3.645 20.993-8.04 26.03-11.082 3.976-2.404 6.419-4.368 7.464-5.271-.793 1.258-2.112 2.987-4.28 5.076-7.764 7.466-20.232 13.644-29.329 17.512l-.107.047v1.439l.224-.076c27.56-8.907 36.699-18.588 36.787-18.684l.047-.052V71.012l-.346-.047zm.032 31.533c-.105.14-10.576 14.05-36.631 23.834l-.113.043v1.682l.226-.073c27.34-8.632 36.69-18.109 36.781-18.2l-.125-.128v-6.765l.141-.176-.28-.217zm.01 8.709c-.029.03-2.731 3.09-8.57 7.377-5.392 3.956-14.64 9.796-28.073 15.154l-.111.045v1.442l.224-.07c13.656-4.202 22.923-8.76 28.295-11.844 5.824-3.345 8.456-5.735 8.483-5.758l-.12-.131v-5.834l.131-.139-.26-.242zm25.947 3.348v24.549h-20.453l-.051.058c-.089.101-9.312 10.345-42.09 24.324l-.107.047v1.617l.224-.074c.336-.104 33.53-10.733 49.897-25.613h.162l.537.43c-1.416 1.481-5.292 5.32-11.88 10.212-7.725 5.742-20.733 14.006-38.823 20.786l-.117.043v1.677l.222-.066c31.54-9.363 49.792-24.224 55.12-29.037l.197.158c-1.774 2.051-4.579 4.942-8.79 8.4-14.24 11.7-33.224 20.725-46.64 26.233l-.11.047v1.674l.225-.07c37.858-11.603 55.55-28.088 58.621-31.17-1.356 1.81-4.206 5.1-9.662 9.507-14.15 11.428-34.498 21.284-49.076 27.54l-.107.046v1.797l.224-.074c18.834-5.975 34.99-13.514 48.022-22.416 10.43-7.126 18.892-15.137 25.154-23.805 10.673-14.778 11.25-26.517 11.254-26.633l.01-.187h-21.963zm-25.953 5.021c-.08.1-8.284 9.905-36.64 21.451l-.108.045v1.801l.228-.076c25.783-8.391 36.652-16.55 36.76-16.631l-.106-.143v-6.068l.137-.15-.271-.229zm.021 8.22c-.154.132-15.676 13.209-36.65 20.755l-.12.04v1.571l.23-.076c28.562-9.694 36.687-16.334 36.765-16.399l-.112-.138v-5.385l.112-.092-.112-.138h-.002l-.11-.137zm.291 8.018-.283.22c-.141.11-14.522 11.197-36.668 20.044l.066.172v1.117l-.06.024.119.338c33.315-12.176 39.637-18.258 39.697-18.319l.31-.306h-3.18v-3.29z" fill="#127ebd"/>
  <path d="m236.258 20.725-.225.072c-18.833 5.972-34.99 13.513-48.02 22.414-10.432 7.126-18.894 15.136-25.158 23.805-10.67 14.776-11.248 26.517-11.253 26.634l-.006.186h21.963V69.289h20.453l.05-.059c.089-.102 9.31-10.346 42.088-24.326l.108-.043v-1.617l-.225.07c-.337.107-33.529 10.733-49.896 25.616h-.16l-.54-.43c1.414-1.479 5.284-5.316 11.868-10.207 7.73-5.742 20.744-14.01 38.84-20.791l.115-.043v-1.678l-.225.069c-31.54 9.358-49.792 24.222-55.117 29.035l-.197-.158c1.768-2.046 4.563-4.927 8.761-8.377 14.245-11.713 33.24-20.743 46.668-26.256l.11-.047V28.37l-.227.07c-37.866 11.606-55.556 28.096-58.62 31.174 1.356-1.81 4.204-5.1 9.66-9.508 14.152-11.43 34.5-21.287 49.077-27.543l.108-.043v-1.796zm-.235 29.937c-33.314 12.18-39.639 18.26-39.697 18.318l-.306.31h3.181v3.286l.28-.22c.143-.11 14.522-11.195 36.665-20.043l-.062-.167v-1.125l.059-.021-.12-.338zm.237 7.567-.233.08C207.464 68 199.343 74.64 199.266 74.705l.111.139v5.385l-.113.093.224.274c.156-.132 15.677-13.21 36.655-20.756l.117-.041v-1.57zm0 7.29-.23.075c-25.782 8.392-36.653 16.551-36.76 16.633l.107.148v6.059l-.139.152.272.228c.08-.097 8.28-9.902 36.638-21.45l.112-.044v-1.8zm0 7.65-.229.07c-13.654 4.202-22.919 8.76-28.289 11.841-5.824 3.345-8.458 5.733-8.484 5.756l.119.137v5.83l-.133.14.262.239c.028-.031 2.718-3.082 8.555-7.364 5.392-3.96 14.645-9.804 28.087-15.166l.112-.045V73.17zm0 7.167-.229.07c-27.337 8.634-36.69 18.108-36.781 18.203l.127.13v6.76l-.143.177.284.217c.102-.141 10.572-14.047 36.627-23.832l.115-.043v-1.682zm-.002 7.64-.227.077c-27.56 8.906-36.697 18.586-36.785 18.683l-.045.051v30.594l.344.043c.012-.052 1.397-5.428 6.578-12.117 4.785-6.178 13.88-14.764 30.018-20.55l.117-.038v-1.569l-.227.075c-19.203 6.185-27.37 11.701-30.224 14.039.826-1.217 2.107-2.833 4.06-4.703 7.349-7.054 18.346-12.292 26.28-15.452l.11-.043V95.63l-.224.066c-12.386 3.646-20.99 8.04-26.025 11.084-3.975 2.403-6.42 4.367-7.465 5.268.79-1.254 2.112-2.985 4.277-5.068 7.764-7.469 20.235-13.645 29.33-17.514l.108-.045v-1.443z" fill="#179b60"/>
</svg>