<?xml version="1.0" encoding="UTF-8" standalone="no"?><!-- Created with Inkscape (http://www.inkscape.org/) --><svg xmlns="http://www.w3.org/2000/svg" height="600" width="900" version="1.1" xmlns:xlink="http://www.w3.org/1999/xlink"> <rect fill-rule="nonzero" height="600" width="900" y="0" x="0" fill="#FFF"/> <g transform="translate(-4.0937499,225.40625)">  <g id="g5563" fill="#2d3568" transform="matrix(1.4019715,0,0,1.4019715,215.75843,-102.33944)">   <path d="m4.0938,36.188,0,69.281,35.844,20.719-35.844,20.688,0,69.312,155.91-90-155.91-90z"/>   <path d="M160-2.1875c-16.98,1.3135-33.98,6.0001-50,14.438-62.931,33.137-87.075,111.01-53.938,173.94,21.376,40.59,61.358,65.05,103.94,68.4v-60.281c-21.79-3.21-41.65-16.8-51.97-38.12-16.567-34.23-2.26-75.403,31.97-91.971,6.49-3.1417,13.229-5.1885,20-6.1875v-60.219z"/>  </g>  <use xlink:href="#g5563" transform="matrix(-1,0,0,1,908.18717,0)" height="251.1875" width="317.8125" y="0" x="0"/> </g></svg>