<?xml version="1.0" encoding="UTF-8" standalone="no"?>
<!-- Created with Inkscape (http://www.inkscape.org/) -->
<svg
   xmlns:svg="http://www.w3.org/2000/svg"
   xmlns="http://www.w3.org/2000/svg"
   version="1.0"
   width="900"
   height="600"
   id="svg2">
  <defs
     id="defs5" />
  <rect
     width="900"
     height="600"
     rx="0"
     ry="0"
     x="0"
     y="0"
     id="rect2423"
     style="fill:#ffffff;stroke:none" />
  <path
     d="M 450,120.09375 C 350.68567,120.09375 270.09375,200.68567 270.09375,300 C 270.09375,399.31433 350.68567,479.90625 450,479.90625 C 549.31433,479.90625 629.90628,399.31433 629.90625,300 C 629.90625,200.68567 549.31433,120.09375 450,120.09375 z M 450,125.46875 C 546.34632,125.46875 624.53125,203.65368 624.53125,300 C 624.53128,396.34632 546.34632,474.53125 450,474.53125 C 353.65368,474.53125 275.46875,396.34632 275.46875,300 C 275.46875,203.65368 353.65368,125.46875 450,125.46875 z M 450,138 C 450,138 417.25,158.25 415,193 C 415,193 401.55282,180.5 374.5,180.5 C 329.59002,180.5 312,214 312,214 C 312,214 321.51804,203 334.5,203 C 343.16386,203 364,210.35321 364,233 L 364,327 L 364,351 L 364,352 C 326.84607,354.21562 311.2985,382.57332 310.21875,384.625 C 314.56944,384.2162 318.98037,384 323.4375,384 C 379.59102,384.00001 428.05999,417.18346 450.25,465 L 450.5,465 C 472.69001,417.18346 521.15898,384 577.3125,384 C 581.50325,384 585.65285,384.20061 589.75,384.5625 C 588.50247,382.20895 572.9316,354.20235 536,352 L 536,351 L 536,327 L 536,233 C 536,210.35321 556.83614,203 565.5,203 C 578.48196,203 588,214 588,214 C 588,214 570.40998,180.5 525.5,180.5 C 498.44718,180.5 485,193 485,193 C 483,158.25 450,138 450,138 z M 450,214 C 466.62,214 480,227.37459 480,244 L 480,352 C 480,368.62541 466.62,382 450,382 C 433.38,382 420,368.62541 420,352 L 420,244 C 420,227.37459 433.38,214 450,214 z"
     id="rect2389"
     style="fill:#be0026;stroke:none" />
</svg>
